<svg xmlns="http://www.w3.org/2000/svg" version="1.1" xmlns:xlink="http://www.w3.org/1999/xlink" xmlns:svgjs="http://svgjs.dev/svgjs" width="1000" height="1000" viewBox="0 0 1000 1000"><rect width="1000" height="1000" fill="#000000"></rect><g transform="matrix(0.7,0,0,0.7,149.57575757575756,451.03384942232753)"><svg viewBox="0 0 396 56" data-background-color="#ffffff" preserveAspectRatio="xMidYMid meet" height="141" width="1000" xmlns="http://www.w3.org/2000/svg" xmlns:xlink="http://www.w3.org/1999/xlink"><g id="tight-bounds" transform="matrix(1,0,0,1,0.2400000000000091,-0.2177869062851414)"><svg viewBox="0 0 395.52 56.43557381257027" height="56.43557381257027" width="395.52"><g><svg viewBox="0 0 578.1058997184944 82.48821342800727" height="56.43557381257027" width="395.52"><g><rect width="2.8481266844243622" height="71.62507678264016" x="402.97582901681767" y="5.431568322683553" fill="#ffffff" opacity="1" stroke-width="0" stroke="transparent" fill-opacity="1" class="rect-i$-0" data-fill-palette-color="primary" rx="1%" id="i$-0" data-palette-color="#ffb400"></rect></g><g transform="matrix(1,0,0,1,0,11.400324721236899)"><svg viewBox="0 0 395.52 59.68756398553347" height="59.68756398553347" width="395.52"><g id="textblocktransform"><svg viewBox="0 0 395.52 59.68756398553347" height="59.68756398553347" width="395.52" id="textblock"><g><svg viewBox="0 0 395.52 31.58232525465402" height="31.58232525465402" width="395.52"><g transform="matrix(1,0,0,1,0,0)"><svg width="395.52" viewBox="1.27 -32.81 415.79 33.300000000000004" height="31.58232525465402" data-palette-color="#ffb400"><g class="undefined-text-0" data-fill-palette-color="primary" id="text-0"><path d="M1.86-23.93L1.86-23.93Q1.86-27.59 4.93-30.1 8.01-32.62 11.87-32.62L11.87-32.62Q13.23-32.62 14.26-32.47 15.28-32.32 17.11-31.86 18.95-31.4 19.63-31.25L19.63-31.25Q20.21-27.93 20.21-23.73L20.21-23.73Q20.12-23.29 19.63-23.29L19.63-23.29Q18.31-23.29 18.21-23.73L18.21-23.73Q17.92-25.98 16.11-28.13 14.31-30.27 11.72-30.27L11.72-30.27Q9.47-30.27 8.28-29 7.08-27.73 7.08-25.59L7.08-25.59Q7.08-24.85 7.25-24.19 7.42-23.54 7.93-22.9 8.45-22.27 8.76-21.85 9.08-21.44 9.99-20.8 10.89-20.17 11.21-19.92 11.52-19.68 12.67-18.97 13.82-18.26 14.06-18.16L14.06-18.16Q14.36-17.92 15.7-17.11 17.04-16.31 17.58-15.94 18.12-15.58 19.14-14.7 20.17-13.82 20.63-13.04 21.09-12.26 21.48-11.06 21.88-9.86 21.88-8.5L21.88-8.5Q21.88-4.59 18.73-2.05 15.58 0.49 11.43 0.49L11.43 0.49Q8.5 0.49 2.44-0.88L2.44-0.88Q2-2.64 1.64-5.3 1.27-7.96 1.27-8.79L1.27-8.79Q1.32-9.18 2.05-9.18L2.05-9.18Q3.32-9.18 3.47-8.79L3.47-8.79Q3.66-7.91 4.15-6.86 4.64-5.81 5.49-4.61 6.35-3.42 7.79-2.66 9.23-1.9 11.04-1.9L11.04-1.9Q13.33-1.9 14.84-3.27 16.36-4.64 16.36-7.37L16.36-7.37Q16.36-8.2 16.04-8.98 15.72-9.77 15.31-10.3 14.89-10.84 14.09-11.47 13.28-12.11 12.74-12.45 12.21-12.79 11.16-13.4 10.11-14.01 9.67-14.26L9.67-14.26Q9.52-14.4 9.13-14.65L9.13-14.65Q7.71-15.53 6.98-16.02 6.25-16.5 5.1-17.46 3.96-18.41 3.37-19.24 2.78-20.07 2.32-21.29 1.86-22.51 1.86-23.93ZM56-1.46L56-1.46Q56.2-1.46 56.2-0.54L56.2-0.54Q56.2-0.15 56.1 0.15L56.1 0.15Q50.24-0.15 49.9-0.15L49.9-0.15Q48.92-0.15 47.85-0.1 46.77-0.05 45.48 0.02 44.19 0.1 43.41 0.15L43.41 0.15Q43.21-0.05 43.21-0.54L43.21-0.54Q43.21-1.46 43.41-1.46L43.41-1.46Q43.99-1.46 45.24-1.81 46.48-2.15 46.63-2.54L46.63-2.54Q47.02-4.05 47.02-6.64L47.02-6.64 47.02-15.04 46.92-15.23Q42.33-15.33 40.48-15.33L40.48-15.33Q33.74-15.23 33.74-15.09L33.74-15.09 33.74-6.93Q33.74-4.25 34.18-2.54L34.18-2.54Q34.27-2.2 35.52-1.83 36.77-1.46 37.2-1.46L37.2-1.46Q37.4-1.46 37.4-0.54L37.4-0.54Q37.4-0.15 37.3 0.15L37.3 0.15Q31.44-0.15 31.1-0.15L31.1-0.15Q30.12-0.15 29.05-0.1 27.98-0.05 26.68 0.02 25.39 0.1 24.61 0.15L24.61 0.15Q24.41-0.05 24.41-0.54L24.41-0.54Q24.41-1.46 24.61-1.46L24.61-1.46Q25.19-1.46 26.44-1.81 27.68-2.15 27.83-2.54L27.83-2.54Q28.22-4.05 28.22-6.64L28.22-6.64 28.22-25.49Q28.22-28.42 27.83-29.59L27.83-29.59Q27.63-29.98 26.46-30.35 25.29-30.71 24.7-30.71L24.7-30.71Q24.51-30.71 24.51-31.45L24.51-31.45Q24.51-32.23 24.61-32.32L24.61-32.32Q24.85-32.32 27.32-32.18 29.78-32.03 31.1-32.03L31.1-32.03Q31.49-32.03 37.35-32.32L37.35-32.32Q37.5-31.88 37.5-31.54L37.5-31.54Q37.5-30.71 37.3-30.71L37.3-30.71Q36.86-30.71 35.54-30.32 34.23-29.93 34.13-29.59L34.13-29.59Q33.74-28.08 33.74-25.29L33.74-25.29 33.74-18.16 33.84-18.02Q38.62-17.92 40.48-17.92L40.48-17.92Q42.53-17.92 46.92-18.02L46.92-18.02Q47.02-18.12 47.02-18.21L47.02-18.21 47.02-25.49Q47.02-28.42 46.63-29.59L46.63-29.59Q46.43-29.98 45.26-30.35 44.09-30.71 43.5-30.71L43.5-30.71Q43.31-30.71 43.31-31.45L43.31-31.45Q43.31-32.23 43.41-32.32L43.41-32.32Q43.65-32.32 46.12-32.18 48.58-32.03 49.9-32.03L49.9-32.03Q50.29-32.03 56.15-32.32L56.15-32.32Q56.3-31.88 56.3-31.54L56.3-31.54Q56.3-30.71 56.1-30.71L56.1-30.71Q55.66-30.71 54.34-30.32 53.02-29.93 52.93-29.59L52.93-29.59Q52.54-28.08 52.54-25.29L52.54-25.29 52.54-6.93Q52.54-4.25 52.98-2.54L52.98-2.54Q53.07-2.2 54.32-1.83 55.56-1.46 56-1.46ZM65.62-32.08L65.62-32.08Q67.77-32.08 73.19-32.25 78.61-32.42 81.39-32.42L81.39-32.42Q81.59-30.96 82.17-28.34 82.76-25.73 82.81-25.49L82.81-25.49Q82.56-25.24 81.78-25.24L81.78-25.24Q81.25-25.24 81.1-25.59L81.1-25.59Q79.49-29.93 74.85-29.93L74.85-29.93 72.31-29.93Q68.7-29.93 68.6-29.3L68.6-29.3Q68.31-27.93 68.31-25.34L68.31-25.34 68.31-17.68Q68.31-17.38 70.45-17.38L70.45-17.38 72.99-17.38Q73.04-17.38 73.19-17.38L73.19-17.38Q76.02-17.38 76.56-17.63 77.09-17.87 77.39-19.34L77.39-19.34Q77.53-20.07 77.68-20.56L77.68-20.56Q77.73-20.9 78.46-20.9L78.46-20.9Q79.15-20.9 79.39-20.65L79.39-20.65 79.39-11.43Q79.19-11.23 78.46-11.23L78.46-11.23Q77.83-11.23 77.68-11.62L77.68-11.62Q77.34-12.94 77.07-13.57 76.8-14.21 76.73-14.26 76.66-14.31 76.31-14.55L76.31-14.55Q75.68-14.94 71.82-14.94L71.82-14.94Q68.31-14.94 68.31-14.55L68.31-14.55 68.31-6.98Q68.31-4.3 68.75-3.03L68.75-3.03Q68.99-2.39 72.07-2.39L72.07-2.39 73.87-2.39Q77.68-2.39 79.68-3.42L79.68-3.42Q80.46-3.81 81.44-5.13 82.42-6.45 82.95-8.11L82.95-8.11Q83-8.4 83.64-8.4L83.64-8.4Q84.71-8.4 85-8.11L85-8.11Q84.86-7.67 84.3-6.1 83.74-4.54 83.44-3.74 83.15-2.93 82.81-1.76 82.47-0.59 82.37 0.15L82.37 0.15Q80.41 0.15 74.29 0 68.16-0.15 65.67-0.05L65.67-0.05 59.17 0.15Q59.03 0 59.03-0.63L59.03-0.63Q59.03-1.46 59.17-1.46L59.17-1.46Q59.81-1.46 61.03-1.78 62.25-2.1 62.45-2.54L62.45-2.54Q62.79-3.56 62.79-6.98L62.79-6.98 62.79-25.44Q62.79-28.37 62.45-29.44L62.45-29.44Q62.3-29.98 61.08-30.32 59.86-30.66 59.13-30.66L59.13-30.66Q58.93-30.66 58.93-31.4L58.93-31.4Q58.93-32.08 59.13-32.28L59.13-32.28Q62.35-32.08 65.62-32.08ZM96.82-25.29L96.82-25.29 96.82-17.43Q96.82-17.29 96.89-17.21 96.97-17.14 97.06-17.09L97.06-17.09 97.11-17.09 97.5-17.09Q98.53-17.09 100.04-18.75L100.04-18.75Q103.95-22.95 108.64-28.52L108.64-28.52Q109.42-29.44 109.42-29.98L109.42-29.98Q109.42-30.47 108.34-30.66 107.27-30.86 106.54-30.86L106.54-30.86Q106.34-30.86 106.29-31.42 106.24-31.98 106.34-32.32L106.34-32.32Q111.76-32.03 112.25-32.03L112.25-32.03Q113.18-32.03 114.08-32.08 114.98-32.13 116.03-32.2 117.08-32.28 117.77-32.32L117.77-32.32Q117.86-32.13 117.84-31.49 117.81-30.86 117.67-30.86L117.67-30.86Q114.25-30.47 112.74-28.81L112.74-28.81 103.65-18.46Q103.12-17.82 103.75-17.09L103.75-17.09 115.18-3.52Q116.06-2.44 117.55-1.95 119.04-1.46 119.72-1.46L119.72-1.46Q119.96-1.46 119.96-0.54L119.96-0.54Q119.96-0.15 119.82 0.15L119.82 0.15Q113.96-0.15 113.13-0.15L113.13-0.15Q111.56-0.15 109.39-0.02 107.22 0.1 106.34 0.15L106.34 0.15Q106.14-0.05 106.14-0.76 106.14-1.46 106.34-1.46L106.34-1.46Q106.88-1.46 107.71-1.81 108.54-2.15 108.54-2.54L108.54-2.54Q108.54-2.78 107.17-4.59 105.8-6.4 103.41-9.2 101.02-12.01 98.67-14.45L98.67-14.45Q98.48-14.65 97.6-14.65L97.6-14.65Q96.82-14.65 96.82-14.06L96.82-14.06 96.82-6.84Q96.82-4.25 97.26-2.54L97.26-2.54Q97.36-2.2 98.6-1.83 99.85-1.46 100.29-1.46L100.29-1.46Q100.48-1.46 100.48-0.54L100.48-0.54Q100.48-0.15 100.38 0.15L100.38 0.15Q94.52-0.15 94.18-0.15L94.18-0.15Q93.21-0.15 92.13-0.1 91.06-0.05 89.76 0.02 88.47 0.1 87.69 0.15L87.69 0.15Q87.49-0.05 87.49-0.54L87.49-0.54Q87.49-1.46 87.69-1.46L87.69-1.46Q88.27-1.46 89.52-1.81 90.76-2.15 90.91-2.54L90.91-2.54Q91.3-4.05 91.3-6.64L91.3-6.64 91.3-25.49Q91.3-28.42 90.91-29.59L90.91-29.59Q90.72-29.98 89.54-30.35 88.37-30.71 87.79-30.71L87.79-30.71Q87.59-30.71 87.59-31.45L87.59-31.45Q87.59-32.23 87.69-32.32L87.69-32.32Q87.93-32.32 90.4-32.18 92.86-32.03 94.18-32.03L94.18-32.03Q94.57-32.03 100.43-32.32L100.43-32.32Q100.58-31.88 100.58-31.54L100.58-31.54Q100.58-30.71 100.38-30.71L100.38-30.71Q99.94-30.71 98.63-30.32 97.31-29.93 97.21-29.59L97.21-29.59Q96.82-28.08 96.82-25.29ZM129.38-32.08L129.38-32.08Q131.53-32.08 136.95-32.25 142.37-32.42 145.16-32.42L145.16-32.42Q145.35-30.96 145.94-28.34 146.52-25.73 146.57-25.49L146.57-25.49Q146.33-25.24 145.55-25.24L145.55-25.24Q145.01-25.24 144.86-25.59L144.86-25.59Q143.25-29.93 138.61-29.93L138.61-29.93 136.07-29.93Q132.46-29.93 132.36-29.3L132.36-29.3Q132.07-27.93 132.07-25.34L132.07-25.34 132.07-17.68Q132.07-17.38 134.22-17.38L134.22-17.38 136.76-17.38Q136.81-17.38 136.95-17.38L136.95-17.38Q139.78-17.38 140.32-17.63 140.86-17.87 141.15-19.34L141.15-19.34Q141.3-20.07 141.45-20.56L141.45-20.56Q141.49-20.9 142.23-20.9L142.23-20.9Q142.91-20.9 143.15-20.65L143.15-20.65 143.15-11.43Q142.96-11.23 142.23-11.23L142.23-11.23Q141.59-11.23 141.45-11.62L141.45-11.62Q141.1-12.94 140.83-13.57 140.57-14.21 140.49-14.26 140.42-14.31 140.08-14.55L140.08-14.55Q139.44-14.94 135.59-14.94L135.59-14.94Q132.07-14.94 132.07-14.55L132.07-14.55 132.07-6.98Q132.07-4.3 132.51-3.03L132.51-3.03Q132.75-2.39 135.83-2.39L135.83-2.39 137.64-2.39Q141.45-2.39 143.45-3.42L143.45-3.42Q144.23-3.81 145.2-5.13 146.18-6.45 146.72-8.11L146.72-8.11Q146.77-8.4 147.4-8.4L147.4-8.4Q148.48-8.4 148.77-8.11L148.77-8.11Q148.62-7.67 148.06-6.1 147.5-4.54 147.21-3.74 146.91-2.93 146.57-1.76 146.23-0.59 146.13 0.15L146.13 0.15Q144.18 0.15 138.05 0 131.92-0.15 129.43-0.05L129.43-0.05 122.94 0.15Q122.79 0 122.79-0.63L122.79-0.63Q122.79-1.46 122.94-1.46L122.94-1.46Q123.57-1.46 124.79-1.78 126.02-2.1 126.21-2.54L126.21-2.54Q126.55-3.56 126.55-6.98L126.55-6.98 126.55-25.44Q126.55-28.37 126.21-29.44L126.21-29.44Q126.06-29.98 124.84-30.32 123.62-30.66 122.89-30.66L122.89-30.66Q122.7-30.66 122.7-31.4L122.7-31.4Q122.7-32.08 122.89-32.28L122.89-32.28Q126.11-32.08 129.38-32.08ZM160.75-32.15Q164.05-32.03 166.15-32.03 168.25-32.03 171.57-32.15 174.89-32.28 176.89-32.32L176.89-32.32Q178.11-32.32 180.26-32.81L180.26-32.81 181.19-25.34Q180.85-25 179.87-25L179.87-25Q179.48-25 179.38-25.24L179.38-25.24Q178.7-27.93 177.58-28.88 176.45-29.83 174.06-29.83L174.06-29.83Q169.52-29.83 169.32-29L169.32-29Q168.88-27.59 168.88-24.41L168.88-24.41 168.88-6.79Q168.88-4.15 169.32-2.54L169.32-2.54Q169.37-2.2 170.64-1.83 171.91-1.46 172.35-1.46L172.35-1.46Q172.55-1.46 172.55-0.59L172.55-0.59Q172.55-0.1 172.45 0.2L172.45 0.2Q171.81 0.15 170.57 0.05 169.32-0.05 168.27-0.1 167.22-0.15 166.25-0.15L166.25-0.15Q164.93-0.15 162.61 0 160.29 0.15 159.75 0.2L159.75 0.2Q159.56 0 159.56-0.59L159.56-0.59Q159.56-1.46 159.75-1.46L159.75-1.46Q160.34-1.46 161.58-1.81 162.83-2.15 162.98-2.54L162.98-2.54Q163.37-3.86 163.37-6.59L163.37-6.59 163.37-24.27Q163.37-28.32 162.93-29L162.93-29Q162.54-29.83 158.29-29.83L158.29-29.83Q155.9-29.83 154.77-28.88 153.65-27.93 152.92-25.29L152.92-25.29Q152.87-25 152.43-25L152.43-25Q151.5-25 151.16-25.39L151.16-25.39 152.09-32.81Q154.24-32.32 155.46-32.32L155.46-32.32Q157.46-32.28 160.75-32.15Z" fill="#ffffff" data-fill-palette-color="primary"></path><path d="M189.1-32.13L189.1-32.13Q189.1-32.13 197.55-32.13L197.55-32.13Q205.51-32.13 209.97-27.44 214.44-22.75 214.44-16.41L214.44-16.41Q214.44-9.38 209.93-4.61 205.41 0.15 197.5 0.15L197.5 0.15Q196.47 0.15 193.47 0.05 190.47-0.05 189.15-0.05L189.15-0.05 182.65 0.15Q182.51 0 182.51-0.63L182.51-0.63Q182.51-1.46 182.65-1.46L182.65-1.46Q183.29-1.46 184.51-1.78 185.73-2.1 185.93-2.54L185.93-2.54Q186.27-3.56 186.27-6.98L186.27-6.98 186.27-25.44Q186.27-28.37 185.93-29.44L185.93-29.44Q185.78-29.98 184.56-30.32 183.34-30.66 182.61-30.66L182.61-30.66Q182.41-30.66 182.41-31.4L182.41-31.4Q182.41-32.08 182.61-32.28L182.61-32.28Q185.83-32.13 189.1-32.13ZM191.79-25.88L191.79-25.88 191.79-6.74Q191.79-4 192.32-3.13L192.32-3.13Q193.1-2.34 198.28-2.34L198.28-2.34Q208.19-2.34 208.19-16.6L208.19-16.6Q208.19-22.07 205.53-25.88 202.87-29.69 197.94-29.69L197.94-29.69 197.69-29.69Q193.01-29.69 192.42-28.91L192.42-28.91Q191.79-28.03 191.79-25.88ZM223.67-32.08L223.67-32.08Q225.82-32.08 231.24-32.25 236.66-32.42 239.44-32.42L239.44-32.42Q239.63-30.96 240.22-28.34 240.81-25.73 240.86-25.49L240.86-25.49Q240.61-25.24 239.83-25.24L239.83-25.24Q239.29-25.24 239.15-25.59L239.15-25.59Q237.54-29.93 232.9-29.93L232.9-29.93 230.36-29.93Q226.74-29.93 226.65-29.3L226.65-29.3Q226.35-27.93 226.35-25.34L226.35-25.34 226.35-17.68Q226.35-17.38 228.5-17.38L228.5-17.38 231.04-17.38Q231.09-17.38 231.24-17.38L231.24-17.38Q234.07-17.38 234.61-17.63 235.14-17.87 235.44-19.34L235.44-19.34Q235.58-20.07 235.73-20.56L235.73-20.56Q235.78-20.9 236.51-20.9L236.51-20.9Q237.19-20.9 237.44-20.65L237.44-20.65 237.44-11.43Q237.24-11.23 236.51-11.23L236.51-11.23Q235.88-11.23 235.73-11.62L235.73-11.62Q235.39-12.94 235.12-13.57 234.85-14.21 234.78-14.26 234.7-14.31 234.36-14.55L234.36-14.55Q233.73-14.94 229.87-14.94L229.87-14.94Q226.35-14.94 226.35-14.55L226.35-14.55 226.35-6.98Q226.35-4.3 226.79-3.03L226.79-3.03Q227.04-2.39 230.11-2.39L230.11-2.39 231.92-2.39Q235.73-2.39 237.73-3.42L237.73-3.42Q238.51-3.81 239.49-5.13 240.46-6.45 241-8.11L241-8.11Q241.05-8.4 241.69-8.4L241.69-8.4Q242.76-8.4 243.05-8.11L243.05-8.11Q242.91-7.67 242.34-6.1 241.78-4.54 241.49-3.74 241.2-2.93 240.86-1.76 240.51-0.59 240.42 0.15L240.42 0.15Q238.46 0.15 232.33 0 226.21-0.15 223.72-0.05L223.72-0.05 217.22 0.15Q217.08 0 217.08-0.63L217.08-0.63Q217.08-1.46 217.22-1.46L217.22-1.46Q217.86-1.46 219.08-1.78 220.3-2.1 220.49-2.54L220.49-2.54Q220.84-3.56 220.84-6.98L220.84-6.98 220.84-25.44Q220.84-28.37 220.49-29.44L220.49-29.44Q220.35-29.98 219.13-30.32 217.91-30.66 217.17-30.66L217.17-30.66Q216.98-30.66 216.98-31.4L216.98-31.4Q216.98-32.08 217.17-32.28L217.17-32.28Q220.4-32.08 223.67-32.08ZM254.87-25.29L254.87-25.29 254.87-6.93Q254.87-4.54 255.31-3.03L255.31-3.03Q255.55-2.39 258.63-2.39L258.63-2.39 260.43-2.39Q264.24-2.39 266.24-3.42L266.24-3.42Q267.02-3.81 268-5.13 268.98-6.45 269.52-8.11L269.52-8.11Q269.56-8.4 270.2-8.4L270.2-8.4Q271.27-8.4 271.57-8.11L271.57-8.11Q271.42-7.67 270.86-6.1 270.3-4.54 270-3.74 269.71-2.93 269.37-1.76 269.03-0.59 268.93 0.15L268.93 0.15Q266.98 0.15 260.85 0 254.72-0.15 252.23-0.05L252.23-0.05 245.74 0.15Q245.59 0 245.59-0.63L245.59-0.63Q245.59-1.46 245.74-1.46L245.74-1.46Q246.37-1.46 247.59-1.78 248.81-2.1 249.01-2.54L249.01-2.54Q249.35-3.56 249.35-6.98L249.35-6.98 249.35-25.44Q249.35-28.42 248.96-29.59L248.96-29.59Q248.76-29.98 247.59-30.35 246.42-30.71 245.83-30.71L245.83-30.71Q245.64-30.71 245.64-31.45L245.64-31.45Q245.64-32.23 245.74-32.32L245.74-32.32Q245.98-32.32 248.45-32.18 250.91-32.03 252.23-32.03L252.23-32.03Q252.62-32.03 258.48-32.32L258.48-32.32Q258.63-31.88 258.63-31.54L258.63-31.54Q258.63-30.71 258.43-30.71L258.43-30.71Q257.99-30.71 256.67-30.32 255.35-29.93 255.26-29.59L255.26-29.59Q254.87-28.08 254.87-25.29ZM277.86-6.64L277.86-25.49Q277.86-28.42 277.47-29.59L277.47-29.59Q277.28-29.98 276.1-30.35 274.93-30.71 274.35-30.71L274.35-30.71Q274.15-30.71 274.15-31.45L274.15-31.45Q274.15-32.23 274.25-32.32L274.25-32.32Q274.49-32.32 276.96-32.18 279.42-32.03 280.74-32.03L280.74-32.03Q281.13-32.03 286.99-32.32L286.99-32.32Q287.14-31.88 287.14-31.54L287.14-31.54Q287.14-30.71 286.94-30.71L286.94-30.71Q286.5-30.71 285.19-30.32 283.87-29.93 283.77-29.59L283.77-29.59Q283.38-28.08 283.38-25.29L283.38-25.29 283.38-6.93Q283.38-4.25 283.82-2.54L283.82-2.54Q283.92-2.2 285.16-1.83 286.41-1.46 286.85-1.46L286.85-1.46Q287.04-1.46 287.04-0.54L287.04-0.54Q287.04-0.15 286.94 0.15L286.94 0.15Q281.08-0.15 280.74-0.15L280.74-0.15Q279.77-0.15 278.69-0.1 277.62-0.05 276.32 0.02 275.03 0.1 274.25 0.15L274.25 0.15Q274.05-0.05 274.05-0.54L274.05-0.54Q274.05-1.46 274.25-1.46L274.25-1.46Q274.83-1.46 276.08-1.81 277.33-2.15 277.47-2.54L277.47-2.54Q277.86-4.05 277.86-6.64L277.86-6.64ZM295.78-32.03L295.78-32.03Q296.46-32.03 302.47-32.32L302.47-32.32Q302.62-32.13 302.62-31.42 302.62-30.71 302.42-30.71L302.42-30.71Q302.03-30.71 301.39-30.59 300.76-30.47 300.08-30.05 299.39-29.64 299.39-29L299.39-29Q299.39-28.08 303.1-18.99L303.1-18.99Q303.69-17.43 304.08-16.6L304.08-16.6Q304.67-15.09 305.55-13.11 306.42-11.13 307.06-9.86 307.69-8.59 307.69-8.69L307.69-8.69 314.82-25.54Q315.8-27.83 315.8-28.91L315.8-28.91Q315.8-29.79 314.65-30.25 313.5-30.71 312.33-30.71L312.33-30.71Q312.14-30.71 312.16-31.42 312.19-32.13 312.28-32.32L312.28-32.32Q312.72-32.32 314.63-32.18 316.53-32.03 317.7-32.03L317.7-32.03Q318.97-32.03 320.63-32.15 322.29-32.28 323.03-32.32L323.03-32.32Q323.12-32.08 323.12-31.59L323.12-31.59Q323.12-30.76 323.03-30.76L323.03-30.76Q322.39-30.76 321.34-30.4 320.29-30.03 319.71-29.35L319.71-29.35Q318.97-28.17 317.61-25.05L317.61-25.05 307.45-1.27Q306.72 0.49 305.55 0.49L305.55 0.49Q305.06 0.49 304.76 0L304.76 0 294.71-25Q293.58-27.93 292.85-29.35L292.85-29.35Q292.51-29.98 291.34-30.35 290.16-30.71 289.48-30.71L289.48-30.71Q289.29-30.71 289.29-31.45L289.29-31.45Q289.29-32.13 289.43-32.32L289.43-32.32Q289.77-32.32 292.12-32.18 294.46-32.03 295.78-32.03ZM331.37-32.08L331.37-32.08Q333.52-32.08 338.94-32.25 344.36-32.42 347.14-32.42L347.14-32.42Q347.34-30.96 347.93-28.34 348.51-25.73 348.56-25.49L348.56-25.49Q348.32-25.24 347.53-25.24L347.53-25.24Q347-25.24 346.85-25.59L346.85-25.59Q345.24-29.93 340.6-29.93L340.6-29.93 338.06-29.93Q334.45-29.93 334.35-29.3L334.35-29.3Q334.06-27.93 334.06-25.34L334.06-25.34 334.06-17.68Q334.06-17.38 336.21-17.38L336.21-17.38 338.75-17.38Q338.79-17.38 338.94-17.38L338.94-17.38Q341.77-17.38 342.31-17.63 342.85-17.87 343.14-19.34L343.14-19.34Q343.29-20.07 343.43-20.56L343.43-20.56Q343.48-20.9 344.21-20.9L344.21-20.9Q344.9-20.9 345.14-20.65L345.14-20.65 345.14-11.43Q344.95-11.23 344.21-11.23L344.21-11.23Q343.58-11.23 343.43-11.62L343.43-11.62Q343.09-12.94 342.82-13.57 342.55-14.21 342.48-14.26 342.41-14.31 342.07-14.55L342.07-14.55Q341.43-14.94 337.57-14.94L337.57-14.94Q334.06-14.94 334.06-14.55L334.06-14.55 334.06-6.98Q334.06-4.3 334.5-3.03L334.5-3.03Q334.74-2.39 337.82-2.39L337.82-2.39 339.62-2.39Q343.43-2.39 345.44-3.42L345.44-3.42Q346.22-3.81 347.19-5.13 348.17-6.45 348.71-8.11L348.71-8.11Q348.76-8.4 349.39-8.4L349.39-8.4Q350.46-8.4 350.76-8.11L350.76-8.11Q350.61-7.67 350.05-6.1 349.49-4.54 349.2-3.74 348.9-2.93 348.56-1.76 348.22-0.59 348.12 0.15L348.12 0.15Q346.17 0.15 340.04 0 333.91-0.15 331.42-0.05L331.42-0.05 324.93 0.15Q324.78 0 324.78-0.63L324.78-0.63Q324.78-1.46 324.93-1.46L324.93-1.46Q325.56-1.46 326.78-1.78 328-2.1 328.2-2.54L328.2-2.54Q328.54-3.56 328.54-6.98L328.54-6.98 328.54-25.44Q328.54-28.37 328.2-29.44L328.2-29.44Q328.05-29.98 326.83-30.32 325.61-30.66 324.88-30.66L324.88-30.66Q324.68-30.66 324.68-31.4L324.68-31.4Q324.68-32.08 324.88-32.28L324.88-32.28Q328.1-32.08 331.37-32.08ZM366.04-29.79L366.04-29.79Q363.99-29.79 363.21-29.44L363.21-29.44Q362.67-29.2 362.62-24.37L362.62-24.37 362.62-18.75Q362.62-17.68 363.45-17.33 364.28-16.99 365.75-16.99L365.75-16.99 367.01-16.99Q368.82-16.99 370.26-18.7 371.7-20.41 371.7-23.14L371.7-23.14Q371.7-29.79 366.04-29.79ZM366.82-32.23L366.82-32.23Q368.09-32.23 369.48-31.96 370.87-31.69 372.36-31.05 373.85-30.42 375.02-29.49 376.19-28.56 376.93-27.05 377.66-25.54 377.66-23.63L377.66-23.63Q377.66-21 375.95-18.65 374.24-16.31 371.8-15.33L371.8-15.33Q371.41-15.19 371.6-14.84L371.6-14.84Q374.34-9.91 377.07-6.54L377.07-6.54Q378.78-4.44 380.76-2.95 382.74-1.46 384.4-1.46L384.4-1.46Q384.59-1.17 384.59-0.68L384.59-0.68Q384.59-0.2 384.4 0.2L384.4 0.2Q383.81 0.29 382.88 0.29L382.88 0.29Q380.39 0.29 378.37-0.29 376.34-0.88 374.85-2.03 373.36-3.17 372.39-4.25 371.41-5.32 370.34-6.98L370.34-6.98Q369.65-7.96 368.77-9.28 367.89-10.6 367.43-11.3 366.97-12.01 366.38-12.79 365.79-13.57 365.38-13.96 364.96-14.36 364.57-14.5L364.57-14.5Q364.28-14.65 363.4-14.65L363.4-14.65Q362.62-14.65 362.62-13.82L362.62-13.82 362.62-6.93Q362.62-4 363.01-2.78L363.01-2.78Q363.16-2.2 364.65-1.83 366.14-1.46 366.82-1.46L366.82-1.46Q367.01-1.46 367.01-0.63L367.01-0.63Q367.01-0.1 366.92 0.2L366.92 0.2Q361.55-0.1 359.98-0.1L359.98-0.1Q358.67-0.1 357.03-0.02 355.39 0.05 354.42 0.1L354.42 0.1 353.44 0.2Q353.29 0 353.29-0.68L353.29-0.68Q353.29-1.46 353.44-1.46L353.44-1.46Q354.08-1.46 355.32-1.78 356.57-2.1 356.76-2.54L356.76-2.54Q357.05-3.42 357.05-6.98L357.05-6.98 357.05-25.44Q357.05-28.22 356.76-29.44L356.76-29.44Q356.61-29.83 355.32-30.25 354.03-30.66 353.44-30.66L353.44-30.66Q353.25-30.66 353.25-31.4L353.25-31.4Q353.25-32.13 353.44-32.28L353.44-32.28Q358.62-32.13 359.93-32.13L359.93-32.13Q361.3-32.13 363.33-32.18 365.35-32.23 366.82-32.23ZM393.04-32.03L393.04-32.03Q393.92-32.03 399.78-32.32L399.78-32.32Q399.87-32.13 399.85-31.45 399.82-30.76 399.68-30.76L399.68-30.76Q398.9-30.76 397.92-30.42 396.94-30.08 396.94-29.39L396.94-29.39Q396.94-28.96 397.38-28.13L397.38-28.13 402.56-18.65Q402.8-18.41 403.05-18.75L403.05-18.75Q405.15-21.88 407.1-25.2 409.05-28.52 409.05-29.39L409.05-29.39Q409.05-29.93 408.15-30.35 407.25-30.76 405.78-30.76L405.78-30.76Q405.59-30.76 405.59-31.45 405.59-32.13 405.73-32.32L405.73-32.32Q410.66-32.03 411.59-32.03L411.59-32.03Q412.72-32.03 413.62-32.08 414.52-32.13 415.47-32.2 416.43-32.28 416.96-32.32L416.96-32.32Q417.06-31.93 417.06-31.54L417.06-31.54Q417.06-30.76 416.87-30.76L416.87-30.76Q416.13-30.76 414.84-30.32 413.55-29.88 412.96-29.15L412.96-29.15Q411.54-27.05 407.88-21.12 404.22-15.19 404.22-14.55L404.22-14.55 404.22-6.93Q404.22-4.05 404.61-2.54L404.61-2.54Q404.71-2.2 405.95-1.78 407.2-1.37 407.59-1.37L407.59-1.37Q407.78-1.37 407.78-0.59L407.78-0.59Q407.78-0.1 407.69 0.2L407.69 0.2Q407.05 0.15 405.83 0.05 404.61-0.05 403.58-0.1 402.56-0.15 401.58-0.15L401.58-0.15Q400.26-0.15 397.99 0 395.72 0.15 395.19 0.2L395.19 0.2Q394.99 0 394.99-0.59L394.99-0.59Q394.99-1.37 395.14-1.37L395.14-1.37Q395.72-1.37 396.94-1.76 398.16-2.15 398.31-2.54L398.31-2.54Q398.7-3.96 398.7-6.84L398.7-6.84 398.7-14.06Q398.7-14.31 398.38-15.01 398.07-15.72 397.29-17.16 396.5-18.6 395.92-19.65 395.33-20.7 394.01-23.05 392.7-25.39 392.06-26.51L392.06-26.51Q390.65-29.15 389.52-29.88L389.52-29.88Q389.03-30.22 388.08-30.49 387.13-30.76 386.69-30.76L386.69-30.76Q386.54-30.76 386.52-31.25 386.49-31.74 386.59-31.93L386.59-31.93Q387.76-32.03 393.04-32.03Z" fill="#ffffff" data-fill-palette-color="secondary"></path></g></svg></g></svg></g><g transform="matrix(1,0,0,1,163.310208,39.038154271471726)"><svg viewBox="0 0 232.209792 20.64940971406175" height="20.64940971406175" width="232.209792"><g transform="matrix(1,0,0,1,0,0)"><svg width="232.209792" viewBox="1.46 -36.89 560.5699999999999 49.85" height="20.64940971406175" data-palette-color="#14a800"><path d="M10.03 0L1.46-24.12 5.74-24.12 12.28-3.88 18.48-24.12 22.41-24.12 28.86-3.91 35.4-24.12 39.67-24.12 30.86 0 26.83 0 20.41-19.56 14.06 0 10.03 0ZM55.91-24.58L55.91-24.58Q57.66-24.58 59.07-24.16 60.47-23.73 61.4-23.07 62.33-22.41 63-21.35 63.67-20.29 64.02-19.3 64.38-18.31 64.57-16.92 64.77-15.53 64.82-14.5 64.87-13.48 64.87-12.08L64.87-12.08 64.87-10.18 48.29-10.18Q48.29-8.86 48.89-7.56 49.48-6.25 50.57-5.16 51.66-4.08 53.43-3.39 55.2-2.71 57.35-2.71L57.35-2.71Q59.89-2.71 62.84-3.59L62.84-3.59 63.55-0.85Q59.62 0.49 55.83 0.49L55.83 0.49Q53.17 0.49 51.11-0.22 49.05-0.93 47.79-2.06 46.53-3.2 45.73-4.79 44.92-6.37 44.61-7.95 44.31-9.52 44.31-11.28L44.31-11.28Q44.31-13.99 44.97-16.24 45.63-18.48 46.75-20.01 47.87-21.53 49.37-22.58 50.88-23.63 52.52-24.11 54.17-24.58 55.91-24.58ZM55.05-21.12L55.05-21.12Q52.9-21.12 51.35-19.93 49.8-18.75 49.09-16.99 48.39-15.23 48.39-13.21L48.39-13.21 60.98-13.21Q60.98-21.12 55.05-21.12ZM94.08-24.58L94.08-24.58Q96.77-24.58 98.64-23.96 100.51-23.34 101.52-22.14 102.53-20.95 102.97-19.48 103.41-18.02 103.41-16.11L103.41-16.11 103.41 0 100.58 0 99.65-2.2Q96.7 0.49 92.86 0.49L92.86 0.49Q89.45 0.49 87.08-1.57 84.71-3.64 84.71-6.4L84.71-6.4Q84.71-7.86 85.25-9.03 85.78-10.21 86.8-10.99 87.81-11.77 89.1-12.32 90.4-12.87 92.12-13.16 93.84-13.45 95.57-13.57 97.31-13.7 99.38-13.7L99.38-13.7 99.38-15.6Q99.38-16.43 99.32-17.04 99.26-17.65 98.92-18.51 98.58-19.36 97.99-19.91 97.4-20.46 96.23-20.86 95.06-21.26 93.45-21.26L93.45-21.26Q90.96-21.26 87-20.17L87-20.17 86.25-23.1Q90.25-24.58 94.08-24.58ZM99.38-5.13L99.38-10.67 97.89-10.67Q96.5-10.67 95.48-10.62 94.45-10.57 93.07-10.34 91.69-10.11 90.81-9.69 89.93-9.28 89.31-8.48 88.69-7.69 88.69-6.59L88.69-6.59Q88.69-5.05 90.24-3.86 91.79-2.66 93.94-2.66L93.94-2.66Q97.09-2.66 99.38-5.13L99.38-5.13ZM115-24.12L115.76-22.31Q118.81-24.58 122.5-24.58L122.5-24.58Q125.04-24.58 127.11-23.63L127.11-23.63 125.89-20.43Q123.99-21.17 121.94-21.17L121.94-21.17Q118.89-21.17 116.2-19.48L116.2-19.48 116.2 0 112.2 0 112.2-24.12 115-24.12ZM142.13-24.58L142.13-24.58Q143.88-24.58 145.29-24.16 146.69-23.73 147.62-23.07 148.55-22.41 149.22-21.35 149.89-20.29 150.24-19.3 150.6-18.31 150.79-16.92 150.99-15.53 151.04-14.5 151.09-13.48 151.09-12.08L151.09-12.08 151.09-10.18 134.51-10.18Q134.51-8.86 135.11-7.56 135.71-6.25 136.79-5.16 137.88-4.08 139.65-3.39 141.42-2.71 143.57-2.71L143.57-2.71Q146.11-2.71 149.06-3.59L149.06-3.59 149.77-0.85Q145.84 0.49 142.05 0.49L142.05 0.49Q139.39 0.49 137.33-0.22 135.27-0.93 134.01-2.06 132.75-3.2 131.95-4.79 131.14-6.37 130.83-7.95 130.53-9.52 130.53-11.28L130.53-11.28Q130.53-13.99 131.19-16.24 131.85-18.48 132.97-20.01 134.09-21.53 135.6-22.58 137.1-23.63 138.74-24.11 140.39-24.58 142.13-24.58ZM141.27-21.12L141.27-21.12Q139.12-21.12 137.57-19.93 136.02-18.75 135.31-16.99 134.61-15.23 134.61-13.21L134.61-13.21 147.2-13.21Q147.2-21.12 141.27-21.12ZM183.01-21L183.01-21Q180.16-21 176.57-19.12L176.57-19.12 176.57 0 172.57 0 172.57-36.89 176.57-36.89 176.57-22.29Q180.84-24.56 184.58-24.56L184.58-24.56Q186.19-24.56 187.47-24.15 188.75-23.73 189.58-23.11 190.41-22.49 191.01-21.5 191.61-20.51 191.91-19.64 192.22-18.77 192.38-17.58 192.54-16.38 192.57-15.63 192.61-14.87 192.61-13.84L192.61-13.84 192.61 0 188.51 0 188.51-14.58Q188.51-21 183.01-21ZM211.77-24.58L211.77-24.58Q213.53-24.58 214.93-24.16 216.34-23.73 217.27-23.07 218.19-22.41 218.86-21.35 219.54-20.29 219.89-19.3 220.24-18.31 220.44-16.92 220.63-15.53 220.68-14.5 220.73-13.48 220.73-12.08L220.73-12.08 220.73-10.18 204.15-10.18Q204.15-8.86 204.75-7.56 205.35-6.25 206.44-5.16 207.52-4.08 209.29-3.39 211.06-2.71 213.21-2.71L213.21-2.71Q215.75-2.71 218.71-3.59L218.71-3.59 219.41-0.85Q215.48 0.49 211.7 0.49L211.7 0.49Q209.04 0.49 206.97-0.22 204.91-0.93 203.65-2.06 202.4-3.2 201.59-4.79 200.79-6.37 200.48-7.95 200.18-9.52 200.18-11.28L200.18-11.28Q200.18-13.99 200.83-16.24 201.49-18.48 202.62-20.01 203.74-21.53 205.24-22.58 206.74-23.63 208.39-24.11 210.04-24.58 211.77-24.58ZM210.92-21.12L210.92-21.12Q208.77-21.12 207.22-19.93 205.67-18.75 204.96-16.99 204.25-15.23 204.25-13.21L204.25-13.21 216.85-13.21Q216.85-21.12 210.92-21.12ZM231.11-24.12L231.86-22.31Q234.91-24.58 238.6-24.58L238.6-24.58Q241.14-24.58 243.21-23.63L243.21-23.63 241.99-20.43Q240.09-21.17 238.04-21.17L238.04-21.17Q234.99-21.17 232.3-19.48L232.3-19.48 232.3 0 228.3 0 228.3-24.12 231.11-24.12ZM258.23-24.58L258.23-24.58Q259.98-24.58 261.39-24.16 262.79-23.73 263.72-23.07 264.65-22.41 265.32-21.35 265.99-20.29 266.34-19.3 266.7-18.31 266.89-16.92 267.09-15.53 267.14-14.5 267.19-13.48 267.19-12.08L267.19-12.08 267.19-10.18 250.61-10.18Q250.61-8.86 251.21-7.56 251.81-6.25 252.89-5.16 253.98-4.08 255.75-3.39 257.52-2.71 259.67-2.71L259.67-2.71Q262.21-2.71 265.16-3.59L265.16-3.59 265.87-0.85Q261.94 0.49 258.15 0.49L258.15 0.49Q255.49 0.49 253.43-0.22 251.37-0.93 250.11-2.06 248.85-3.2 248.05-4.79 247.24-6.37 246.94-7.95 246.63-9.52 246.63-11.28L246.63-11.28Q246.63-13.99 247.29-16.24 247.95-18.48 249.07-20.01 250.19-21.53 251.7-22.58 253.2-23.63 254.85-24.11 256.49-24.58 258.23-24.58ZM257.37-21.12L257.37-21.12Q255.22-21.12 253.67-19.93 252.12-18.75 251.42-16.99 250.71-15.23 250.71-13.21L250.71-13.21 263.31-13.21Q263.31-21.12 257.37-21.12ZM300.68-3.15L301.24-0.42Q297.7 0.49 295.72 0.49 293.74 0.49 292.38-0.15 291.01-0.78 290.3-1.95 289.59-3.13 289.29-4.48 288.98-5.83 288.98-7.59L288.98-7.59 288.98-20.97 285.74-20.97 285.74-24.12 288.98-24.12 288.98-31.03 292.99-31.03 292.99-24.12 300.34-24.12 300.34-20.97 292.99-20.97 292.99-7.64Q292.99-2.64 296.94-2.64L296.94-2.64Q297.65-2.64 300.68-3.15L300.68-3.15ZM317.86-24.58L317.86-24.58Q322.87-24.58 326.1-21.39 329.34-18.19 329.34-12.55L329.34-12.55Q329.34-6.57 326.03-3.04 322.72 0.49 317.47 0.49L317.47 0.49Q312.47 0.49 309.29-2.82 306.12-6.13 306.12-11.79L306.12-11.79Q306.12-17.63 309.35-21.11 312.59-24.58 317.86-24.58ZM317.52-21.17L317.52-21.17Q314.52-21.17 312.27-18.85 310.03-16.53 310.03-12.48L310.03-12.48Q310.03-8.45 312.22-5.69 314.42-2.93 317.91-2.93L317.91-2.93Q321.13-2.93 323.28-5.37 325.43-7.81 325.43-11.74L325.43-11.74Q325.43-13.99 324.74-15.82 324.04-17.65 322.9-18.8 321.77-19.95 320.38-20.56 318.99-21.17 317.52-21.17ZM360.58-24.58L360.58-24.58Q361.1-24.58 361.55-24.57 362-24.56 362.43-24.51 362.85-24.46 363.16-24.44 363.46-24.41 363.87-24.34 364.27-24.27 364.45-24.23 364.64-24.19 365.06-24.08 365.49-23.97 365.59-23.95 365.69-23.93 366.16-23.78 366.64-23.63 366.71-23.61L366.71-23.61 365.69-20.56Q362.41-21.46 359.92-21.46L359.92-21.46Q358.48-21.46 357.37-21.17 356.26-20.87 355.66-20.46 355.07-20.04 354.69-19.49 354.31-18.95 354.2-18.53 354.09-18.12 354.09-17.72L354.09-17.72Q354.09-16.72 355.13-15.94 356.16-15.16 357.71-14.67 359.26-14.18 361.07-13.51 362.88-12.84 364.43-12.1 365.98-11.35 367.02-10.01 368.05-8.67 368.05-6.91L368.05-6.91Q368.05-5.91 367.8-4.97 367.54-4.03 366.82-3 366.1-1.98 364.96-1.23 363.83-0.49 361.93 0 360.02 0.49 357.56 0.49L357.56 0.49Q353.82 0.49 349.35-1.34L349.35-1.34 350.48-4.37Q352.99-3.44 354.59-3.05 356.19-2.66 357.73-2.66L357.73-2.66Q363.68-2.66 363.68-6.45L363.68-6.45Q363.68-7.28 363.1-7.91 362.51-8.54 361.53-8.95 360.56-9.35 359.33-9.78 358.09-10.21 356.81-10.57 355.53-10.94 354.3-11.54 353.06-12.13 352.09-12.85 351.11-13.57 350.52-14.72 349.94-15.87 349.94-17.31L349.94-17.31Q349.94-18.19 350.22-19.1 350.5-20.02 351.27-21.03 352.04-22.05 353.19-22.81 354.33-23.58 356.25-24.08 358.17-24.58 360.58-24.58ZM385.75-24.58L385.75-24.58Q387.51-24.58 388.91-24.16 390.32-23.73 391.24-23.07 392.17-22.41 392.84-21.35 393.51-20.29 393.87-19.3 394.22-18.31 394.42-16.92 394.61-15.53 394.66-14.5 394.71-13.48 394.71-12.08L394.71-12.08 394.71-10.18 378.13-10.18Q378.13-8.86 378.73-7.56 379.33-6.25 380.42-5.16 381.5-4.08 383.27-3.39 385.04-2.71 387.19-2.71L387.19-2.71Q389.73-2.71 392.68-3.59L392.68-3.59 393.39-0.85Q389.46 0.49 385.68 0.49L385.68 0.49Q383.02 0.49 380.95-0.22 378.89-0.93 377.63-2.06 376.38-3.2 375.57-4.79 374.76-6.37 374.46-7.95 374.15-9.52 374.15-11.28L374.15-11.28Q374.15-13.99 374.81-16.24 375.47-18.48 376.6-20.01 377.72-21.53 379.22-22.58 380.72-23.63 382.37-24.11 384.02-24.58 385.75-24.58ZM384.9-21.12L384.9-21.12Q382.75-21.12 381.2-19.93 379.65-18.75 378.94-16.99 378.23-15.23 378.23-13.21L378.23-13.21 390.83-13.21Q390.83-21.12 384.9-21.12ZM405.08-24.12L405.84-22.31Q408.89-24.58 412.58-24.58L412.58-24.58Q415.12-24.58 417.19-23.63L417.19-23.63 415.97-20.43Q414.07-21.17 412.02-21.17L412.02-21.17Q408.97-21.17 406.28-19.48L406.28-19.48 406.28 0 402.28 0 402.28-24.12 405.08-24.12ZM435.94-24.12L440.09-24.12 431.62 0 427.47 0 419.02-24.12 423.42-24.12 429.67-3.98 435.94-24.12ZM456.45-24.58L456.45-24.58Q458.2-24.58 459.61-24.16 461.01-23.73 461.94-23.07 462.87-22.41 463.54-21.35 464.21-20.29 464.56-19.3 464.92-18.31 465.11-16.92 465.31-15.53 465.36-14.5 465.41-13.48 465.41-12.08L465.41-12.08 465.41-10.18 448.83-10.18Q448.83-8.86 449.43-7.56 450.03-6.25 451.11-5.16 452.2-4.08 453.97-3.39 455.74-2.71 457.89-2.71L457.89-2.71Q460.43-2.71 463.38-3.59L463.38-3.59 464.09-0.85Q460.16 0.49 456.37 0.49L456.37 0.49Q453.71 0.49 451.65-0.22 449.59-0.93 448.33-2.06 447.07-3.2 446.27-4.79 445.46-6.37 445.16-7.95 444.85-9.52 444.85-11.28L444.85-11.28Q444.85-13.99 445.51-16.24 446.17-18.48 447.29-20.01 448.41-21.53 449.92-22.58 451.42-23.63 453.07-24.11 454.71-24.58 456.45-24.58ZM455.59-21.12L455.59-21.12Q453.44-21.12 451.89-19.93 450.34-18.75 449.64-16.99 448.93-15.23 448.93-13.21L448.93-13.21 461.52-13.21Q461.52-21.12 455.59-21.12ZM493.55 1.2L483.47-24.12 487.86-24.12 495.58-3.66 502.76-24.12 506.91-24.12 492.99 12.96 488.72 12.96 493.55 1.2ZM523.04-24.58L523.04-24.58Q528.05-24.58 531.28-21.39 534.52-18.19 534.52-12.55L534.52-12.55Q534.52-6.57 531.21-3.04 527.9 0.49 522.65 0.49L522.65 0.49Q517.65 0.49 514.47-2.82 511.3-6.13 511.3-11.79L511.3-11.79Q511.3-17.63 514.53-21.11 517.77-24.58 523.04-24.58ZM522.7-21.17L522.7-21.17Q519.7-21.17 517.45-18.85 515.2-16.53 515.2-12.48L515.2-12.48Q515.2-8.45 517.4-5.69 519.6-2.93 523.09-2.93L523.09-2.93Q526.31-2.93 528.46-5.37 530.61-7.81 530.61-11.74L530.61-11.74Q530.61-13.99 529.91-15.82 529.22-17.65 528.08-18.8 526.95-19.95 525.56-20.56 524.16-21.17 522.7-21.17ZM558.02-4.98L558.02-24.12 562.03-24.12 562.03 0 559.22 0 558.37-2.03Q553.75 0.49 549.84 0.49L549.84 0.49Q547.87 0.49 546.4-0.13 544.94-0.76 544.13-1.68 543.33-2.61 542.84-4.04 542.35-5.47 542.22-6.76 542.08-8.06 542.08-9.72L542.08-9.72 542.08-24.12 546.09-24.12 546.09-9.42Q546.09-3.1 551.58-3.1L551.58-3.1Q554.41-3.1 558.02-4.98L558.02-4.98Z" opacity="1" transform="matrix(1,0,0,1,0,0)" fill="#ffffff" class="undefined-text-1" data-fill-palette-color="secondary" id="text-1"></path></svg></g></svg></g></svg></g></svg></g><g transform="matrix(1,0,0,1,413.2797847180597,0)"><svg viewBox="0 0 164.82611500043464 82.48821342800727" height="82.48821342800727" width="164.82611500043464"><g><svg xmlns="http://www.w3.org/2000/svg" xmlns:xlink="http://www.w3.org/1999/xlink" version="1.1" x="0" y="0" viewBox="5.082 25 89.918 45" enable-background="new 0 0 100 100" xml:space="preserve" height="82.48821342800727" width="164.82611500043464" class="icon-icon-0" data-fill-palette-color="accent" id="icon-0"><path d="M89.821 34.071c-0.38-0.949-1.299-1.571-2.321-1.571h-10v-5c0-1.381-1.119-2.5-2.5-2.5H32.9c-1.381 0-2.5 1.119-2.5 2.5v5H17.5c-3.224 0-3.224 5 0 5h12.9v5H12.5c-3.224 0-3.224 5 0 5h17.9v15c0 1.381 1.119 2.5 2.5 2.5h5.377c0.966 2.901 3.702 5 6.923 5 3.221 0 5.957-2.099 6.923-5h21.154c0.966 2.901 3.702 5 6.923 5 3.221 0 5.957-2.099 6.923-5H92.5c1.381 0 2.5-1.119 2.5-2.5v-15c0-0.318-0.061-0.633-0.179-0.929L89.821 34.071zM45.2 65c-1.269 0-2.3-1.031-2.3-2.3s1.032-2.3 2.3-2.3c1.268 0 2.3 1.031 2.3 2.3S46.468 65 45.2 65zM72.5 60H51.976c-1.076-2.691-3.705-4.6-6.776-4.6-3.071 0-5.7 1.908-6.777 4.6H35.4V47.5h7.1c3.224 0 3.224-5 0-5h-7.1v-5h17.1c3.224 0 3.224-5 0-5H35.4V30h37.1V60zM80.2 65c-1.269 0-2.3-1.031-2.3-2.3s1.032-2.3 2.3-2.3c1.268 0 2.3 1.031 2.3 2.3S81.468 65 80.2 65zM90 60h-3.024c-1.076-2.691-3.705-4.6-6.776-4.6-0.954 0-1.864 0.189-2.7 0.524V37.5h8.308l1 2.5H82.5c-1.381 0-2.5 1.119-2.5 2.5v5c0 1.381 1.119 2.5 2.5 2.5H90V60z" fill="#ffffff" data-fill-palette-color="accent"></path><path d="M25 52.5H7.5c-3.224 0-3.224 5 0 5H25c1.381 0 2.5-1.119 2.5-2.5S26.381 52.5 25 52.5z" fill="#ffffff" data-fill-palette-color="accent"></path></svg></g></svg></g></svg></g><defs></defs></svg><rect width="395.52" height="56.43557381257027" fill="none" stroke="none" visibility="hidden"></rect></g></svg></g></svg>